<?xml version="1.0" encoding="iso-8859-1"?>
<!-- Generator: Adobe Illustrator 15.0.0, SVG Export Plug-In . SVG Version: 6.00 Build 0)  -->
<!DOCTYPE svg PUBLIC "-//W3C//DTD SVG 1.1//EN" "http://www.w3.org/Graphics/SVG/1.1/DTD/svg11.dtd">
<svg version="1.1" id="&#x30EC;&#x30A4;&#x30E4;&#x30FC;_1"
	 xmlns="http://www.w3.org/2000/svg" xmlns:xlink="http://www.w3.org/1999/xlink" x="0px" y="0px" width="141.732px"
	 height="141.731px" viewBox="0 0 141.732 141.731" style="enable-background:new 0 0 141.732 141.731;" xml:space="preserve">
<path style="fill-rule:evenodd;clip-rule:evenodd;fill:#4F4F4F;" d="M108.214,129.557l0.203-0.003l-0.217-0.008L108.214,129.557z
	 M33.518,129.557l0.013-0.011l-0.216,0.008L33.518,129.557z M108.417,129.554l0.197,0.003c4.199,0,7.603-3.404,7.603-7.604
	l-0.003-0.197l0.003-0.203V70.866V20.179c0-4.42-3.583-8.003-8.003-8.003H33.518c-4.421,0-8.003,3.583-8.003,8.003v50.687v50.687
	l0.002,0.203l-0.002,0.197c0,4.199,3.404,7.604,7.603,7.604l0.198-0.003l0.216-0.008c1.47-0.08,2.828-0.576,3.961-1.375l0.027,0.052
	l30.938-23.303c0.625-0.604,1.473-0.974,2.409-0.974c0.936,0,1.785,0.37,2.409,0.974l30.938,23.303l0.027-0.052
	c1.134,0.799,2.491,1.295,3.961,1.375L108.417,129.554z M70.866,32.984c1.609,0,6.426,13.912,7.489,14.686
	c1.064,0.776,15.742,1.073,16.238,2.609c0.498,1.534-11.202,10.431-11.607,11.685c-0.405,1.251,3.847,15.348,2.545,16.297
	c-1.302,0.95-13.353-7.464-14.665-7.464c-1.313,0-13.363,8.414-14.665,7.464c-1.302-0.949,2.95-15.046,2.545-16.297
	c-0.405-1.254-12.106-10.15-11.607-11.685c0.496-1.537,15.174-1.833,16.239-2.609C64.44,46.896,69.257,32.984,70.866,32.984z"/>
</svg>
